<?xml version="1.0" encoding="utf-8"?>
<!-- Generator: Adobe Illustrator 28.0.0, SVG Export Plug-In . SVG Version: 6.00 Build 0)  -->
<svg version="1.1" id="Capa_1" xmlns="http://www.w3.org/2000/svg" xmlns:xlink="http://www.w3.org/1999/xlink" x="0px" y="0px"
	 viewBox="0 0 525.4 377.7" style="enable-background:new 0 0 525.4 377.7;" xml:space="preserve">
<style type="text/css">
	.st0{fill:#FFFFFF;}
	.st1{fill:#C4A45C;}
</style>
<path class="st0" d="M341.1,51.1l4.7,6.1l5.2,21c0,0,1.5,5.6,0,8.6s-2.8,8.7-2.8,8.7l-8.8,14c0,0,2.3,19.9,3,22.1
	c0.7,2.2,18.3,11.2,18.3,11.2s30.5-17.2,31.4-19.5s6.4-26.9,6.4-26.9l-4.5-8.9l-1.3-7.7l2.7-9.5l2.9-11.5l-6.5-4l3.1-5.2l8.6-9.3
	L392,27l-16-0.4c0,0-16.3-0.4-18.9,0.2s-20.8,11.4-20.8,11.4"/>
<polyline class="st0" points="143.2,21 152.3,17.7 162.7,19 173.2,21 163.6,115.1 135.2,114.4 134,64.3 "/>
<g>
	<path class="st1" d="M158.1,192.4c0.8,11.9,1.6,23.8,2.3,35.8c0.4,5.4,0.7,10.8,1,16.2c0.5,7.3,0.9,14.6,1.8,21.9
		c0.4,3.3,1.8,6.4,2.6,9.6c0.8,3.5,1.5,7,2.3,10.4c2.5,11.1,3.9,22.4,5.5,33.7c1.8,13.4,2.3,26.8,2.7,40.2c0,0.2,0,0.3,0,0.9
		c-5.4,1.2-10.7,2.4-16.1,3.4c-2.4,0.5-4.9,0.6-7.3,0.9c-1.5,0.2-2.6-0.3-3.7-1.2c-1.5-1.3-3-2.5-4.4-3.8c-0.6-0.6-1.2-1.5-1.4-2.3
		c-1.8-6.7-3.5-13.3-5.1-20c-1.4-5.5-2.8-11-4.1-16.5c-1.4-5.6-2.7-11.2-4.1-16.9c-1.3-5.3-2.5-10.6-3.8-16
		c-1.4-6.1-2.8-12.2-4.1-18.3c-1.4-6.7-2.9-13.4-4.1-20.1c-1.4-8.2-2.5-16.4-3.8-24.6c-2.7-17.2-3.3-34.5-4.2-51.8
		c-0.2-3.4-0.5-6.9-1.2-10.3c-0.8-3.9-0.3-7.7,0.5-11.5c0.9-4.4,1.8-8.8,2.5-13.2c0.2-1.4,0-2.9-0.4-4.3c-0.7-2.3-1.7-4.4-2.6-6.8
		c-5.9,3.1-7.6,8.6-8.8,14.8c-0.3-0.9-0.4-1.4-0.6-1.9c-1.7-5.6-3.5-11.2-5.2-16.9c-1.4-4.7-2.4-9.5-3.9-14.1
		c-2-6-1.6-12.1-0.5-18.1c0.9-5.2,2.2-10.3,3.6-15.4c1.1-4.2,2.6-8.2,4-12.3c1.2-3.5,2.6-6.9,4.1-10.3c2.5-5.6,5-11.2,7.9-16.6
		c0.8-1.6,1.4-3.1,1.3-4.8c-0.1-1.5,0.7-2.4,2.1-2.9c5.6-1.8,11.2-3.8,16.9-5.4c4.5-1.3,9.1-2.1,13.5-3c0.2,1.5,0.1,2.9,0.6,4.1
		c0.5,1.2,1.5,2.1,2.3,3.1c2-3.8,3.8-7.3,5.7-10.8c0.2,0.1,0.4,0.2,0.6,0.3c-0.3,0.6-0.6,1.2-0.9,1.9c-0.4,0.7-0.7,1.4-1,2.1
		c-0.9,2.1-1.9,4.2-2.6,6.4c-0.6,1.7-1.3,2-2.6,0.7c-0.8-0.8-1.5-1.8-2.6-3.1c-1.1,6.7-2.4,13.2-3.3,19.6c-1.1,8-2,16-2.7,24
		c-0.6,7.2-0.9,14.4-1.1,21.7c-0.2,7.8-0.2,15.7-0.3,23.5c0,0.3,0.1,0.5,0.1,0.8h12.6c0-1.9,0-3.7,0-5.4
		c-0.1-13.3-0.3-26.5-0.1-39.8c0-3.8,1-7.7,1.6-11.5c0.2-1.3,1-2.6,1.6-3.8c-0.5,2.8-1.3,5.5-1.5,8.3c-0.5,6.7-0.8,13.4-0.9,20.1
		c-0.1,10.6,0,21.3,0,32h15c0-1-0.1-1.9-0.1-2.8c-0.1-5.8-0.5-11.6-0.3-17.5c0.3-12.7,0.1-25.5,2.1-38.1c1.1-7.2,2.6-14.4,4.1-21.6
		c0.4-2.1,1.2-4,1.9-6.5c-1.6,0.8-2.7,1.4-3.9,2c-1.4,0.6-2,0.3-2.4-1.1c-0.9-3.5-1.7-7-2.3-10.6c1.3,3.6,2.5,7.1,3.8,10.8
		c1.6-0.9,3.1-1.6,4.6-2.5c0.4-0.2,0.6-0.9,0.7-1.3c0.5-1.6,0.9-3.2,1.4-5c1.8,0.4,3.5,0.8,5.2,1.2c9.1,2.4,18,5.5,26.3,10
		c1.3,0.7,2.7,1.4,3.9,2.3c1.4,0.9,1.6,2,0.9,3.6c-0.1,0.3-0.3,0.7-0.2,1c1.3,6.8,2.7,13.6,4,20.4c1.3,6.5,2.6,13,3.8,19.5
		c1.4,7.4,2.5,14.9,4.1,22.3c2.1,9.7,3.2,19.5,4.1,29.3c1.1,11.6,1.9,23.3,2.9,34.9c0.1,1.1-0.3,1.7-1.2,2.2c-4,2-8.2,3-12.7,2.6
		c-3-0.3-5.9-0.7-8.9-1.1c-1-0.1-1.3-0.6-1.4-1.5c-0.6-5.4-1.2-10.7-1.9-16.1c-1.1-8.7-2.2-17.4-3.3-26.1c-0.3-2.1-0.5-4.3-0.8-6.4
		c-0.8-5.5-2-11-4.1-16.2c-1.2-3.2-2.4-6.5-3.6-9.5c-1.7,5.6-0.3,11.4,0.8,17.1c0.5,2.6,1.1,5.2,1.6,7.8c1.4,6.4,3,12.8,4.2,19.2
		c0.4,2.2,0,4.6,0.4,6.9c1.3,8.3,2.7,16.5,4.1,24.7c1.2,7.4,2.5,14.8,3.8,22.2c1.4,8,2.7,16.1,4.1,24.1c1.3,7.7,2.7,15.4,4.1,23.1
		c1.2,6.6,2.4,13.1,3.8,19.7c1.3,6.4,2.8,12.7,4.1,19.1c1.4,7.1,2.7,14.1,4,21.2c1.3,7.2,2.6,14.5,3.8,21.7c1.4,8,2.7,16,4.1,23.9
		c0.5,2.9,1,5.9,1.7,8.7c0.3,1.3-0.3,2-1,2.8c-2.9,3-5.9,5.7-9.3,8c-2,1.3-4,2-6.3,1.9c-4.6-0.2-9.2-0.8-13.6-2.3
		c-1-0.3-1.5-0.8-1.8-1.9c-1.6-5.9-3.2-11.8-4.9-17.6c-1.3-4.8-2.7-9.6-4-14.5c-1.3-4.6-2.6-9.2-3.9-13.8c-1.3-4.9-2.7-9.7-4-14.6
		c-1.4-5.2-2.8-10.4-4.2-15.5c-1.2-4.6-2.4-9.2-3.6-13.7c-1.4-5.5-2.9-11.1-4.3-16.6c-1.3-5.3-2.6-10.5-3.9-15.8
		c-1.4-5.6-2.8-11.2-4.2-16.8c-1.2-4.8-2.4-9.5-3.6-14.2c-1.4-5.3-2.8-10.6-4.2-15.9C158.2,192.4,158.2,192.4,158.1,192.4
		L158.1,192.4z M186.8,65.4c0.1-0.1,0.2-0.3,0.3-0.4c-2-1.5-4-3.1-6.1-4.6c-0.2-0.1-0.5-0.1-0.7-0.1c-0.9,0.2-3.5,3.1-3.7,4.3
		C180,64.9,183.4,65.1,186.8,65.4L186.8,65.4z"/>
	<path class="st1" d="M382.4,73.3c-1.1,2.1,0.3,3.9,1,5.9c-1.2-0.7-2.3-1.4-3.5-2c-0.7-0.3-1.6-0.6-2.4-0.5
		c-0.6,0.1-1.5,0.7-1.5,1.2c-0.1,0.6,0.4,1.6,0.9,1.9c1.4,0.8,3,1.2,4.5,1.8c0.5,0.2,1,0.3,1.4,0.4c-1.9,1.1-3.7,2.3-5.6,3.4
		c-1.1,0.6-1.6,1.5-0.9,2.6c0.7,1.1,1.9,1,2.8,0.5c1.6-1,3-2.2,4.5-3.4c0.3-0.2,0.5-0.6,0.7-0.9c0.1,0.1,0.2,0.1,0.3,0.2
		c-0.4,1-0.8,1.9-1.1,2.9c-0.4,1.3-0.8,2.6-1,3.9c-0.1,0.4,0.1,1.1,0.4,1.2c0.4,0.1,1.2,0,1.4-0.3c0.8-1,1.4-2.1,2-3.2
		c0.3-0.5,0.3-1.2,0.4-1.9c1.2,1,2.3,2.1,3.6,3c0.6,0.4,1.4,0.4,2.1,0.5c0-0.8,0.3-1.7,0-2.3c-0.6-1.3-1.6-2.5-2.5-3.8
		c1.2-0.4,2.4-0.9,3.9-1.4c0,1.6-0.2,3,0.1,4.3c0.2,1,0.9,1.9,1.5,2.9c-0.9,0.6-2.4,1.2-1.6,3.1c0.8,2,2.4,1.4,3.9,0.9
		c0.3,0.7,0.6,1.4,0.8,2c2.1,5.7,4.1,11.5,6.3,17.2c2.2,6,3.2,12.2,4.2,18.4c2.4,14.2,1.6,28.5,0.6,42.8
		c-0.9,13.5-2.3,26.9-3.3,40.4c-0.5,6.5-1.1,13.2,0.5,19.6c1.6,6.3,4.1,12.4,6.2,18.5c0.6,1.6,1.3,3.1,2,4.7
		c1.9,4.8,3.8,9.7,5.7,14.5c1.3,3.3,2.7,6.5,4.1,9.8c1.3,3,2.5,6,3.8,9.1c1.4,3.2,2.7,6.4,4.1,9.6c1.4,3.3,2.8,6.5,4.1,9.8
		c1.2,2.9,2.5,5.8,3.8,8.7c1.4,3.2,2.7,6.3,4,9.5c0.9,2,1.8,4,2.7,5.9c0.2,0.5,0.8,1,1.3,1.1c5.9,1.7,11.4,4,16.7,7.2
		c2,1.2,3.7,2.7,5.5,4.2c1.6,1.3,1.7,2.8,0.2,4.2c-1.8,1.6-3.8,3-5.9,4c-10.3,5-21.5,6.6-32.8,7.9c-7.8,0.9-15.5,1.7-23.2,2.9
		c-4.8,0.7-9.5,2.3-14.2,3.2c-7.2,1.4-14.5,2.2-21.8,0.5c-4.1-1-7.7-3-10.9-5.9c-3.2-2.9-3.4-6.9-4.4-10.6c-0.8-3-1.3-6-2-9.2
		c-14.3-1.2-28.8-4.1-43.4,1.1c0.3-2.2,0.6-4.1,0.8-6c0.8-6.7,1.6-13.3,2.4-20c0.3-3,0.7-6,2.1-8.8c1.3-2.4,1.9-5.2,2.8-7.8
		c1.5-4.2,3.1-8.4,4.6-12.6c1.2-3.3,2.4-6.5,3.7-9.7c1.4-3.8,2.9-7.7,4.3-11.5c1.1-3,2.2-6,3.4-9c1.5-4.1,3-8.2,4.5-12.3
		c1.3-3.5,2.5-7,3.8-10.5c1.1-2.9,2.1-5.8,3.1-8.8c0.2-0.6,0.3-1.2,0.3-1.8c-0.4-14.6-0.8-29.2-1.2-43.9c0-0.1-0.1-0.3-0.1-0.6
		c-0.7,1-1.4,1.8-2,2.8c-1.7,2.9-3.4,5.8-5.1,8.8c-1.9,3.3-3.8,6.7-5.8,10c-2.6,4.4-5.1,8.8-7.8,13.1c-3,4.8-6.1,9.5-9.1,14.3
		c-0.2,0.3-0.3,0.6-0.5,0.8c-2.7,5.5-4.8,11.2-6.5,17.1c-2.2,7.7-3,15.7-4.4,23.5c-2.2,12.3-2.8,24.8-3.8,37.3
		c-0.3,4.2-2.1,7.9-4.5,11.2c-0.1,0.2-0.2,0.4-0.3,0.5c-2.1,4.2-4.2,8.4-6.2,12.6c-1.3,2.7-2.7,5.5-3.4,8.3c-1,3.8-1.5,7.8-2.2,11.9
		c-0.2,0-0.8,0-1.4,0c-10.3-0.9-20.5-2.3-30.5-5.1c-4.2-1.1-8.3-2.7-12.1-4.7c-3.7-1.9-3.6-4.7,0.2-7.6c4.6-3.5,10.1-5,15.6-6.2
		c1-0.2,1.6-0.7,2.1-1.6c3.3-5.7,6.7-11.4,9.9-17.1c2.6-4.6,5.2-9.2,7.7-13.9c2.8-5.1,5.5-10.2,8.3-15.4c2.6-4.9,5.2-9.7,7.8-14.6
		c2.8-5.2,5.5-10.4,8.2-15.6c2.6-4.9,5.2-9.8,7.9-14.7c2.3-4.2,4.5-8.6,7.1-12.6c3-4.6,3.9-9.8,4.4-15c1.4-14.9,2.6-29.8,3.9-44.7
		c0.3-3.1,0.5-6.3,1-9.4c1-6.3,2-12.6,3.5-18.8c1-4.5,2.7-8.9,4.3-13.2c1-2.9,2.3-5.8,3.5-8.7c1.2-2.7,2.4-5.3,3.7-7.9
		c0.2-0.3,0.8-0.7,1.1-0.6c2.1,0.1,4.2,0.4,6.4,0.6c-2.1,1-4.3,2-6.4,3c-0.3,0.1-0.6,0.3-0.8,0.5c-0.9,0.8-0.7,1.5,0.4,1.8
		c1.9,0.5,3.4-0.7,5-1.3c0.4-0.2,0.7-0.4,1.1-0.6c0,1.6-0.1,3.1,0.1,4.6c0.1,0.6,0.7,1.2,1,1.7c0.7-0.5,1.7-0.8,1.9-1.5
		c0.6-1.4,0.7-2.9,1.1-4.4c1.4,0.6,2.9,1.1,4.3,1.7c0.4,0.2,0.9,0.4,1.4,0.3c0.7-0.2,1.4-0.5,2.1-0.8c-0.3-0.7-0.5-1.7-1.1-2.1
		c-1.3-0.9-2.9-1.5-4.5-2.3c1.6-0.5,3.1-0.8,4.4-1.4c0.8-0.4,1.4-1.2,2.1-1.8c-0.9-0.1-1.7-0.4-2.6-0.4c-1.1,0.1-2.1,0.5-3.2,0.7
		c0.5-1.5,1.1-2.8,1.4-4.2c0.1-0.7-0.3-1.5-0.5-2.3c-0.8,0.4-1.9,0.5-2.4,1.1c-0.7,0.9-1.1,2.1-1.7,3.4c-0.3-1.3-0.4-2.5-0.7-3.7
		c-0.2-0.6-0.5-1.4-1-1.6c-0.6-0.4-1.6-0.6-2.2-0.4c-0.5,0.2-0.9,1.4-0.7,2c0.5,1.9,1.2,3.6,1.8,5.5c-1.7-0.5-3.5-1-5.6-1.7
		c1-1.8,2-3.5,2.9-5.2c0.8-1.5,1.6-3,2.5-4.5c0.7-1.3,0.7-1.3,2.6-1.1c-0.7,0.4-1.2,0.6-1.5,1c-0.6,0.6-1.6,1.2-0.8,2.2
		c0.7,0.9,1.7,1,2.7,0.4c0.6-0.4,1-0.9,1.5-1.3c0.7,0.6,1.4,1.6,2.2,1.8c0.9,0.3,2.1,0.1,2.9-0.4c0.9-0.6,0.1-1.4-0.5-2.1
		c-0.6-0.7-1.1-1.4-1.7-2.2c1.1-0.4,2.1-0.6,3.1-1c0.4-0.2,1-0.8,0.9-1.1c-0.2-0.4-0.7-0.9-1.2-1c-0.9-0.2-1.9,0-2.8,0
		c-0.1-2.1-1.1-3.2-2.8-3.3c0.2-1.7,0.3-3.4,0.5-5.1c1.5-0.6,3.6-0.3,3.4-2.7c-0.1-1.7-1.4-1.9-2.3-2c-0.1-1.3,0.3-2.8-0.3-3.4
		c-0.6-0.6-2.2-0.3-3.6-0.3c-0.3-0.8-0.8-2-1.4-3.5c1.9,0.7,3.1,0,4.3-2.1c0.4,0.7,0.6,1.3,0.9,1.7c0.5,0.5,1.1,1.1,1.6,1.1
		c0.8,0,1.8-0.3,2.4-0.9c0.2-0.2-0.3-1.5-0.7-2.1c-0.4-0.6-1.2-1-1.8-1.5c0.1-0.2,0.2-0.4,0.3-0.5c0.7-0.2,1.5-0.2,2.1-0.6
		c0.7-0.4,1.3-1,1.9-1.6c-0.8-0.3-1.5-0.8-2.3-1c-0.5-0.1-1.1,0.1-1.8,0.1c-0.3-1.2,0.8-3.2-1.6-3.3c-1.6-0.1-2.2,0.8-2.3,3.5
		c-1.5-0.6-3-1.5-4.3,0.3c-1.2-2.7-1.3-4.8-0.1-5.5c0.9,1.3,2,2.1,3.7,1.5c1.5-0.5,1.7-1.8,1.7-3.2c1.5-0.4,3.4-0.3,3.4-2.5
		c0-2-1.6-2-2.8-2.1c0.3-1.3,0.5-2.4,0.8-3.9c0.9-0.4,2.1-1,3.8-1.9c-0.2,1-0.5,1.7-0.5,2.4c0,1,0,2,0.2,3c0.2,1.2,1,1.5,2,0.9
		c0.9,1.3,1.8,2.6,2.7,4c-1.3,0-2.6,0-3.8,0c-0.6,0-1.2,0-1.7,0.2c-0.5,0.2-1.3,0.8-1.3,1.1c0.1,0.5,0.6,1.3,1.1,1.4
		c1.2,0.4,2.5,0.5,3.8,0.7c0.5,0.1,1,0.1,1.8,0.2c-0.6,1-1.1,1.7-1.4,2.5c-0.4,1-0.7,2.1-0.7,3.2c0,0.5,0.3,1.4,0.7,1.5
		c0.5,0.2,1.5,0,1.8-0.3c0.8-0.9,1.3-2,1.9-3c0.4-0.6,0.7-1.2,1-1.9c0.8,1.8,1.4,3.4,2.2,4.9c0.3,0.5,1.1,0.8,1.7,1.1
		c0.2-0.6,0.6-1.3,0.5-1.8c-0.3-1.2-0.8-2.4-1.3-3.8c1.6,0.5,3,1,4.4,1.3c1,0.2,2.4,0.7,2.8-0.7c0.4-1.4-1-1.8-2-2.2
		c-0.9-0.4-1.9-0.7-2.8-1.2c0.8-0.1,1.6-0.2,2.4-0.5c1-0.3,2.1-0.7,3-1.2c0.5-0.3,1-1.4,0.9-1.6c-0.6-0.6-1.4-1.4-2.1-1.3
		c-1.5,0.2-3,0.9-4.4,1.4c-0.7,0.2-1.3,0.6-2,1c0.6-2.3,1.2-4.5,1.8-6.7c1.4,1,2.6,0.1,3.6-0.5c1,0.9,1.7,2.1,2.8,2.6
		c1.7,0.7,2.8-0.4,2.2-2.2c-0.3-0.9-0.7-1.7-1.2-2.6c1.1-0.1,2.2-0.2,3.3-0.5c0.5-0.1,0.8-0.6,1.2-1c-0.4-0.4-0.7-1-1.2-1.1
		c-0.8-0.3-1.7-0.4-2.7-0.6c0.2-0.5,0.4-0.9,0.5-1.3c1.8,0.3,3.5,0.5,5.2,0.8c-0.5,1.6-1.1,3.2-1.6,4.8c-0.3,0.9-0.4,2.2,0.7,2.4
		c0.7,0.1,1.9-0.5,2.4-1.1c0.8-1,1.1-2.3,1.7-3.5c0.1-0.2,0.2-0.3,0.3-0.4c0.9,1.6,1.7,3.2,2.6,4.7c0.3,0.4,0.9,0.6,1.3,0.9
		c0.2-0.5,0.5-1,0.5-1.5c-0.2-1.3-0.6-2.5-1-3.9c1,0.3,1.9,0.6,2.9,0.8c0.6,0.2,1.1,0.4,1.7,0.4c1,0.1,2.2,0.4,2.6-0.8
		c0.4-1.3-0.8-1.6-1.7-2c-1.1-0.5-2.2-0.9-3.4-1.4c1.3-0.3,2.6-0.5,3.8-0.8c0.6-0.2,1.4-0.4,1.8-0.9c0.4-0.5,0.8-1.3,0.6-1.9
		c-0.2-0.5-1.1-1.2-1.6-1.1c-1.9,0.5-3.7,1.2-5.6,1.9c-0.3,0.1-0.6,0.3-1.1,0.6c0.4-1.6,0.8-3,1.1-4.4c0.2-0.7,0.3-1.5,0.1-2.2
		c-0.3-0.7-0.8-1.7-1.5-1.9c-1-0.3-2.1,0.3-2.2,1.4c-0.3,2.1-0.4,4.3-0.7,6.5c-0.2-0.4-0.4-0.9-0.7-1.4c-1-1.6-1.9-3.2-3-4.7
		c-0.3-0.4-0.9-0.6-1.4-0.9c-0.3,0.6-0.8,1.3-0.7,1.8c0.4,1.3,1.1,2.6,1.7,3.8c0.1,0.2,0.3,0.4,0.6,0.9c-0.7,0-1.2,0-1.7,0
		c-2.1,0.3-4.3,0.3-6.3,0.9c-0.9,0.3-1.5,1.6-2.2,2.4c-0.9-0.2-2-0.7-3.2-0.7c-0.5,0-1.1,0.8-1.4,1.3c-0.6,1.2,0,1.9,2.8,2.9
		c-0.6,0.4-1.2,0.6-1.6,0.9c-0.5,0.3-0.8,0.7-1.3,1.2c-0.1-0.1-0.5-0.4-0.5-0.4c0.8-1.6-0.5-2.3-1.4-3c-1.2-0.8-2.5-1.4-3.8-2.1
		c1.6-0.5,3.3-1,5-1.5c0.4-0.1,0.8-0.3,1.1-0.5c0.3-0.2,0.6-0.7,0.5-0.9c-0.1-0.3-0.6-0.7-0.9-0.7c-1.1,0-2.2,0.2-3.3,0.3
		c-0.6,0.1-1.2,0.2-1.8,0.4c0.6-1.3,1.3-2.5,1.8-3.8c0.3-0.9,0.8-2.2-0.4-2.8c-1.1-0.5-2,0.4-2.5,1.3c-0.5,0.9-1,1.8-1.5,2.8
		c-0.4-1.4-0.7-2.8-1.1-4.2c-0.6-1.6-1.6-2.2-2.6-1.7c-1.3,0.7-1.7,1.5-0.9,3.2c0.7,1.4,1.1,2.9,1.7,4.5c-1.6-0.6-3-1.1-4.5-1.6
		c-0.9-0.3-1.9-0.5-2.8-0.3c-0.7,0.1-1.5,0.8-1.7,1.4c-0.1,0.5,0.6,1.6,1.1,1.8c1.7,0.5,3.5,0.8,5.2,1c0.6,0.1,1.3,0,2,0.3
		c-1.7,0.7-3.5,1.3-5.2,2c-0.8,0.3-1.5,0.7-2.2,1.2c-0.3,0.2-0.4,0.7-0.6,1c-0.1,0.4-0.2,0.8-0.2,1.2c-0.5-0.2-1-0.3-1.3-0.6
		c-0.8-0.9-1.7-1.2-2.8-0.7c-1.5,0.7-1.7,1.5-0.8,3.6c-0.9,0-2-0.2-2.6,0.2c-0.7,0.4-1,1.4-1.6,2.3c-1.2-0.6-2.8-1.3-4.3-2.1
		c-2.8-1.4-5.6-2.9-8.3-4.3c-0.4-0.2-0.9-0.7-0.8-1.1c0.5-3.8,1.4-7.5,4.1-10.4c3-3.2,6.9-4.3,11.2-4.6c3.9-0.3,7.7-0.7,11.6-1.2
		c1.9-0.2,4-0.5,4.3-3.1c5.9,0.8,11.6,0.8,17.3-0.6c1.5,3,4.3,2.8,6.9,2.9c0,0.2,0,0.4-0.1,0.4c-0.9,0.6-1.9,1.3-1.2,2.5
		c0.8,1.2,1.7,0.2,2.6-0.2c0.3-0.2,0.6-0.3,1.1-0.6c0.2,0.7,0.2,1.4,0.5,2c0.1,0.3,0.5,0.6,0.8,0.9c0.3-0.3,0.7-0.6,0.8-1
		c0.2-0.4,0.1-0.9,0.2-1.3c0.9-0.2,1.8-0.2,2.5-0.6c0.3-0.2,0-1.2,0-1.8c5.7,0,10.8,2.7,12.9,8.3c0,0.1,0.1,0.2,0.1,0.3
		c1.3,3.6,1,4.4-1.9,7.1c-1.2,1.1-2.1,2.6-3.2,3.8c-0.3,0.3-0.8,0.7-1.2,0.7c-2.1-0.1-2.7,0.5-2,2.5c0.1,0.2,0.1,0.4,0.2,0.6
		c-1,0.9-2.9,1.2-2.3,3.1c0.5,1.5,1.8,2.1,3.4,2.2c0.2,1.4,0,3,2.1,3.4c-0.5,1.9-0.9,3.6-1.4,5.7c-1.4-2.4-3-0.9-4.7-0.6
		c0.2-0.7,0.5-1.3,0.4-1.8c0-0.6-0.3-1.7-0.5-1.7c-0.7,0-1.6,0.1-2.1,0.5c-0.6,0.5-0.8,1.4-1.2,2c-0.9-0.2-2-0.6-3-0.5
		c-0.7,0.1-1.3,1-1.9,1.5c0.5,0.6,0.9,1.3,1.5,1.7c0.8,0.5,1.7,0.7,2.7,1.1c-0.7,0.8-1.4,1.5-1.9,2.3c-0.2,0.4-0.4,1.2-0.2,1.4
		c0.4,0.3,1.1,0.4,1.5,0.3c0.9-0.3,1.6-0.8,2.4-1.3c1.4,2.4,2.1,2.7,3.4,1.9c1.1-0.7,1-2-0.2-3.9c1-0.2,2-0.5,3.2-0.7
		c-0.4,1.2-0.7,2.4-1.1,3.6c-0.1,0.3-0.3,0.7-0.2,1c0.2,1.4,0,2.6-1.4,3.4c-1.1,0.6-1.1,1.6-0.2,2.6c1.3,1.5,1.1,1.8-0.8,2.4
		c-1.2,0.4-2.4,0.9-3.5,1.3c0.7-1.6,1.5-3.2,2.1-4.8c0.2-0.5-0.1-1.2-0.2-1.9c-0.5,0.2-1.1,0.4-1.4,0.7c-0.9,1-1.6,2.2-2.3,3.2
		c-0.9-1.3-1.7-2.8-2.8-4.1c-0.4-0.5-1.3-0.6-2-0.8c0.9-1.2,0.7-2.4,0-3.7c1.5-0.6,2.5-1.5,2-3.1c-0.7-2-2.5-0.9-3.8-1.2
		c0.4-2.5,0.2-3.2-1.2-3.7c-1.5-0.5-2.5,0.2-3.3,1.8c-1.2-0.2-2.5-0.7-3.4-0.3c-0.6,0.3-0.5,1.9-0.7,3.2c-0.7,0.4-1.8,1-1.5,2.6
		c0.3,1.9,1.8,2.2,3.4,2.4c0.2,1.4,0,3.1,1.9,3.3c1.8,0.3,2.7-0.8,2.9-2.1C380.1,73,381.3,73.2,382.4,73.3L382.4,73.3z M371.6,86.7
		c1.8-0.7,3.6-1.2,5.4-2.1c1.2-0.6,1-2-0.2-2.5c-0.7-0.3-1.6-0.4-2.3-0.1c-1.5,0.5-3,1.3-4.4,1.9c-0.3,0.1-0.7,0.3-1.3,0.6
		c1.4-2.3,1.9-4.5,1.8-6.9c-0.1-1-0.5-1.7-1.6-1.8c-1.1-0.1-1.8,0.4-2,1.3c-0.3,0.8-0.4,1.7-0.5,2.6c-0.1,1.3,0,2.7,0,4.4
		c-0.8-1.4-1.5-2.5-2.1-3.6c-0.6-1-1.1-2-1.9-2.9c-0.3-0.4-1.2-0.8-1.5-0.6c-0.4,0.2-0.8,1.1-0.7,1.5c0.3,1.1,0.8,2.1,1.3,3
		c0.3,0.6,0.8,1.1,1.3,1.7c-2,0.1-3.6,0.1-5.3,0.3c-0.6,0.1-1.2,0.8-1.7,1.2c0.6,0.5,1,1.2,1.7,1.4c1.6,0.5,3.3,0.7,5.1,1
		c-0.1,0.3-0.2,0.6-0.3,0.9c-0.5,1.2-1.2,2.4-1.6,3.7c-0.3,0.9-0.6,2.1,0.6,2.6c1.3,0.5,2.1-0.3,2.7-1.3c0.7-1.3,1.4-2.5,2.1-3.9
		c0.1,0.2,0.3,0.4,0.4,0.6c0.7,1.5,1.2,3,2,4.4c0.2,0.4,1,0.5,1.5,0.7c0.2-0.5,0.5-1.1,0.4-1.5c-0.3-1.3-0.8-2.6-1.2-4
		c0.4,0.1,0.9,0.3,1.3,0.5c1.3,0.4,2.6,0.8,3.9,1c0.6,0.1,1.2-0.4,1.8-0.7c-0.3-0.6-0.4-1.5-0.9-1.8C374,87.6,372.7,87.2,371.6,86.7
		L371.6,86.7z M371.3,36.2l0.3-0.4c1.5,2.9,3.7,3.1,5.4,0.5c0.6-0.8,1.1-1,2-1.2c0.9-0.2,2-1,2.3-1.9c0.5-1.1-0.7-1.6-1.6-2.1
		c-0.3-0.2-0.6-0.3-1-0.4c0.2,0,0.3,0,0.5,0c0.2-1.1,0.9-2.8,0.4-3.3c-0.7-0.7-2.2-0.6-3.7-0.9c-0.7-1.5-1.4-2-2.9-1.7
		c-2,0.4-1.5,2.1-1.6,3.4c-2.6-0.8-3.6-0.6-4.1,1c-0.2,0.6,0,1.6,0.3,2.1c0.4,0.5,1.2,0.7,1.9,1.1c-0.9,0.8-2.3,1.6-1.4,2.7
		C368.8,35.9,370.2,35.9,371.3,36.2L371.3,36.2z M382.8,98.9c1.4-0.5,2.3-1.3,2-2.8c-0.5-2.3-2.6-1.2-4-1.5c1-1.8,0.9-2.6-0.6-3.4
		c-0.5-0.3-1.3-0.5-1.8-0.3c-0.9,0.5-1.7,1.3-2.2,1.8c-1.2-0.1-2.5-0.6-3.4-0.1c-0.5,0.3-0.4,1.9-0.6,3.1c-1,0.4-1.8,1.3-1.5,2.8
		c0.4,1.8,1.9,2,3.4,2.2c0.1,1.5,0,3.1,2,3.4c1.9,0.2,2.5-1,2.8-2.7c1.2,1.1,2.4,1.8,3.8,0.8C384,101.3,383.2,100.1,382.8,98.9
		L382.8,98.9z M366.2,69.7c1.4-2.6,1.3-3.7-0.4-4.4c-0.5-0.2-1.4-0.4-1.6-0.1c-0.7,0.8-1.1,1.8-1.7,2.8c-1-0.7-1.4-2.9-3.4-1.8
		c-1.1,0.6-0.8,1.7,0.7,3.8c-0.7,0.5-1.6,0.9-2.1,1.6c-0.4,0.5-0.8,1.6-0.6,2.1c0.4,1,1.5,1.2,2.5,0.7c0.9-0.5,1.9-0.9,2.9-1.4
		c0.2,0.9,0.3,1.8,0.6,2.6c0.2,0.5,0.9,1.3,1.1,1.2c0.6-0.3,1.2-0.8,1.4-1.3c0.3-0.6,0.2-1.4,0.3-2.1c2.8,0.3,3.6,0,3.7-1.2
		C369.9,70.8,368.8,70.1,366.2,69.7L366.2,69.7z M360.3,99.2c-0.7,0.5-1.6,0.8-1.9,1.4c-0.4,0.7-0.5,1.8-0.3,2.5
		c0.1,0.3,1.4,0.5,2.1,0.3c1-0.2,1.9-0.8,2.9-1.3c0.2,1,0.3,1.9,0.6,2.8c0.2,0.5,0.8,1.1,1.2,1.1c0.5,0,1.1-0.6,1.2-1.1
		c0.3-0.7,0.2-1.6,0.3-2.4c1.3,0.1,3.1,1.1,3.6-0.7c0.7-2.7-2.1-2.2-3.4-2.9c1.4-2.1,1.4-3.5-0.3-4.1c-0.7-0.3-1.8-0.1-2.3,0.3
		c-0.6,0.5-0.7,1.6-1,2.5c-0.9-1.2-1.5-3-3.4-2.2C358.4,95.9,358.7,97.2,360.3,99.2L360.3,99.2z M385.2,52.1
		c-1.4-0.4-1.4-3.7-3.7-1.7c-2,1.7,0.8,2.3,1,3.6c-0.5,0.2-1.1,0.4-1.6,0.6c-1.1,0.6-1.7,2.1-1.2,3c0.7,1.2,1.8,0.9,2.8,0.4
		c0.8-0.4,1.5-0.9,2.4-1.4c0.4,1.1,0.7,2.1,1.1,3.1c0.2,0.4,0.7,0.9,0.9,0.9c0.4-0.1,1-0.5,1.1-0.9c0.3-0.8,0.3-1.7,0.4-2.6
		c3.2,0,3.6-0.1,3.7-1.3c0-0.4-0.1-1.1-0.4-1.3c-0.9-0.5-2-0.9-3-1.3c1.6-2.8,1.6-2.9-0.1-3.9C385.5,47.8,386.1,51.1,385.2,52.1
		L385.2,52.1z M363.6,117.6c0.7,1,1.2,1.8,1.8,2.6c0.5-0.8,1-1.5,1.3-2c0.9-0.5,2-0.7,2.1-1.2c0.4-1.6-1.1-1.5-2.1-1.9
		c0.9-1.7,0.8-2.6-0.4-3c-1.8-0.6-2,0.8-2.3,1.9c-0.9-0.4-0.9-2.3-2.5-1.2c-1.8,1.3,0.7,1.7,0.5,2.7c-1.1,0.4-2.7,1-1.9,2.4
		C361.4,119.9,362.7,117.6,363.6,117.6L363.6,117.6z M346.9,127c0,0-0.5,0.2-0.7,0.5c-0.3,0.7-0.4,1.4-0.5,2.1c0.6,0,1.4,0.3,1.8,0
		c1.4-0.9,2.1-0.7,2.3,1c0,0.3,0.6,0.6,0.8,1c0.3-0.3,0.7-0.6,0.8-1c0.2-0.5,0.1-1,0.2-1.5c0.1,0.1,0.2,0.3,0.2,0.4
		c0.8-0.3,2.2-0.5,2.3-1c0.6-1.9-1.5-1.4-2.4-2.1c0.9-1.6,0.8-2.5-0.4-2.9c-1.8-0.6-1.5,1.2-2,2c-1.1-0.1-1.2-2.5-2.6-1.2
		C346.5,124.6,346.9,125.8,346.9,127L346.9,127z"/>
	<path class="st1" d="M360.6,47.4c0.3-1,0.7-1.9,1-2.8c1.9,0.8,3.5,1.6,4.8,2.2c-0.2,2.7-0.5,5.2-0.7,7.7
		C363.8,52.6,363.6,49.1,360.6,47.4L360.6,47.4z"/>
	<path class="st1" d="M348.3,66.5c-0.2-0.9-0.3-1.5-0.5-2.2c1,0.1,1.9,0.2,3.1,0.3C350,65.3,349.2,65.8,348.3,66.5L348.3,66.5z"/>
	<path class="st0" d="M186.8,65.4c-3.4-0.3-6.8-0.5-10.2-0.8c0.2-1.3,2.7-4.2,3.7-4.3c0.2,0,0.6,0,0.7,0.1c2,1.5,4.1,3.1,6.1,4.6
		C187,65.1,186.9,65.3,186.8,65.4L186.8,65.4z"/>
	<path class="st0" d="M371.6,86.7c1.1,0.5,2.5,0.9,3.7,1.6c0.5,0.3,0.6,1.2,0.9,1.8c-0.6,0.2-1.2,0.7-1.8,0.7
		c-1.3-0.2-2.6-0.6-3.9-1c-0.5-0.1-0.9-0.3-1.3-0.5c0.5,1.4,0.9,2.7,1.2,4c0.1,0.5-0.3,1-0.4,1.5c-0.5-0.2-1.3-0.3-1.5-0.7
		c-0.8-1.4-1.3-2.9-2-4.4c-0.1-0.2-0.3-0.4-0.4-0.6c-0.7,1.3-1.4,2.6-2.1,3.9c-0.6,1-1.4,1.8-2.7,1.3c-1.2-0.5-0.9-1.7-0.6-2.6
		c0.4-1.3,1.1-2.4,1.6-3.7c0.1-0.3,0.2-0.6,0.3-0.9c-1.8-0.3-3.5-0.5-5.1-1c-0.6-0.2-1.1-0.9-1.7-1.4c0.6-0.4,1.1-1.1,1.7-1.2
		c1.6-0.2,3.3-0.2,5.3-0.3c-0.5-0.7-1-1.1-1.3-1.7c-0.5-1-1-2-1.3-3c-0.1-0.5,0.3-1.4,0.7-1.5c0.4-0.2,1.2,0.2,1.5,0.6
		c0.7,0.9,1.3,1.9,1.9,2.9c0.7,1.1,1.3,2.2,2.1,3.6c0-1.7-0.1-3,0-4.4c0.1-0.9,0.2-1.8,0.5-2.6c0.3-0.9,1-1.4,2-1.3
		c1.1,0.1,1.5,0.8,1.6,1.8c0.2,2.3-0.4,4.5-1.8,6.9c0.6-0.3,1-0.4,1.3-0.6c1.5-0.7,2.9-1.4,4.4-1.9c0.7-0.2,1.6-0.1,2.3,0.1
		c1.2,0.4,1.4,1.9,0.2,2.5C375.3,85.4,373.4,86,371.6,86.7L371.6,86.7z"/>
	<path class="st0" d="M371.3,36.2c-1-0.3-2.5-0.4-3-1.1c-0.9-1.2,0.4-2,1.4-2.7c-0.7-0.4-1.5-0.6-1.9-1.1c-0.4-0.5-0.5-1.5-0.3-2.1
		c0.5-1.6,1.4-1.8,4.1-1c0.2-1.3-0.3-3,1.6-3.4c1.5-0.3,2.3,0.2,2.9,1.7c1.4,0.3,3,0.2,3.7,0.9c0.5,0.5-0.3,2.1-0.4,3.3
		c-0.2,0-0.3,0-0.5,0c0.3,0.1,0.7,0.2,1,0.4c0.8,0.5,2.1,1.1,1.6,2.1c-0.4,0.8-1.4,1.6-2.3,1.9c-0.9,0.2-1.5,0.3-2,1.2
		c-1.7,2.6-4,2.4-5.4-0.5L371.3,36.2L371.3,36.2z"/>
	<path class="st0" d="M382.8,98.9c0.4,1.2,1.3,2.4,0.1,3.3c-1.3,1-2.6,0.3-3.8-0.8c-0.3,1.7-1,2.9-2.8,2.7c-2-0.3-2-1.9-2-3.4
		c-1.6-0.1-3-0.4-3.4-2.2c-0.3-1.6,0.6-2.4,1.5-2.8c0.2-1.3,0.1-2.9,0.6-3.1c0.8-0.4,2.1,0,3.4,0.1c0.5-0.5,1.3-1.3,2.2-1.8
		c0.4-0.2,1.2,0,1.8,0.3c1.5,0.8,1.6,1.6,0.6,3.4c1.4,0.3,3.5-0.8,4,1.5C385.1,97.5,384.2,98.4,382.8,98.9L382.8,98.9z"/>
	<path class="st0" d="M382.4,73.3c-1.2-0.2-2.5-0.4-3.9-0.6c-0.2,1.3-1.1,2.4-2.9,2.1c-1.9-0.3-1.8-1.9-1.9-3.3
		c-1.6-0.2-3.1-0.5-3.4-2.4c-0.3-1.6,0.8-2.2,1.5-2.6c0.3-1.3,0.2-3,0.7-3.2c0.8-0.4,2.1,0.1,3.4,0.3c0.8-1.7,1.8-2.3,3.3-1.8
		c1.4,0.4,1.6,1.2,1.2,3.7c1.3,0.3,3.1-0.8,3.8,1.2c0.5,1.6-0.5,2.5-2,3.1C383.1,71,383.3,72.2,382.4,73.3L382.4,73.3L382.4,73.3z"
		/>
	<path class="st0" d="M366.2,69.7c2.6,0.3,3.7,1.1,3.6,2.4c-0.1,1.2-0.9,1.5-3.7,1.2c-0.1,0.7,0,1.5-0.3,2.1
		c-0.3,0.6-0.9,1.1-1.4,1.3c-0.2,0.1-0.9-0.7-1.1-1.2c-0.3-0.8-0.4-1.7-0.6-2.6c-1,0.5-2,0.9-2.9,1.4c-1.1,0.6-2.1,0.3-2.5-0.7
		c-0.2-0.5,0.1-1.6,0.6-2.1c0.5-0.7,1.4-1.1,2.1-1.6c-1.5-2-1.8-3.2-0.7-3.8c1.9-1,2.4,1.1,3.4,1.8c0.5-0.9,1-2,1.7-2.8
		c0.2-0.3,1.1-0.1,1.6,0.1C367.5,66,367.6,67.1,366.2,69.7L366.2,69.7z"/>
	<path class="st0" d="M360.3,99.2c-1.6-2-1.8-3.3-0.6-3.9c1.9-0.8,2.4,1,3.4,2.2c0.3-0.9,0.4-2,1-2.5c0.5-0.5,1.7-0.6,2.3-0.3
		c1.6,0.7,1.7,2,0.3,4.1c1.4,0.7,4.1,0.2,3.4,2.9c-0.5,1.9-2.3,0.8-3.6,0.7c-0.1,0.8-0.1,1.7-0.3,2.4c-0.2,0.5-0.8,1.1-1.2,1.1
		c-0.4,0-1-0.6-1.2-1.1c-0.3-0.8-0.4-1.8-0.6-2.8c-1,0.5-1.9,1.1-2.9,1.3c-0.7,0.2-2,0-2.1-0.3c-0.2-0.8-0.1-1.8,0.3-2.5
		C358.7,100,359.6,99.7,360.3,99.2L360.3,99.2z"/>
	<path class="st0" d="M385.2,52.1c0.9-1.1,0.4-4.3,3.4-2.6c1.8,1,1.7,1.1,0.1,3.9c1,0.4,2.1,0.8,3,1.3c0.3,0.2,0.4,0.8,0.4,1.3
		c0,1.2-0.4,1.3-3.7,1.3c-0.1,0.9-0.2,1.8-0.4,2.6c-0.1,0.4-0.7,0.8-1.1,0.9c-0.2,0.1-0.7-0.5-0.9-0.9c-0.4-1-0.7-2-1.1-3.1
		c-0.8,0.5-1.6,1-2.4,1.4c-1,0.4-2.1,0.8-2.8-0.4c-0.6-1,0-2.5,1.2-3c0.5-0.3,1.1-0.4,1.6-0.6c-0.2-1.3-3-1.9-1-3.6
		C383.7,48.5,383.8,51.7,385.2,52.1L385.2,52.1z"/>
	<path class="st0" d="M363.6,117.6c-0.9,0.1-2.2,2.3-3.4,0.3c-0.8-1.4,0.7-2,1.9-2.4c0.2-1-2.3-1.4-0.5-2.7c1.5-1.1,1.6,0.8,2.5,1.2
		c0.3-1.1,0.6-2.6,2.3-1.9c1.2,0.4,1.2,1.3,0.4,3c0.9,0.4,2.5,0.3,2.1,1.9c-0.1,0.5-1.2,0.8-2.1,1.2c-0.3,0.4-0.8,1.2-1.3,2
		C364.8,119.4,364.3,118.5,363.6,117.6L363.6,117.6z"/>
	<path class="st0" d="M346.9,127c-0.1-1.2-0.5-2.4-0.1-2.8c1.4-1.3,1.5,1.1,2.6,1.2c0.5-0.8,0.2-2.6,2-2c1.2,0.4,1.3,1.3,0.4,2.9
		c0.8,0.7,2.9,0.2,2.4,2.1c-0.2,0.5-1.5,0.7-2.3,1c-0.1-0.1-0.2-0.3-0.2-0.4c-0.1,0.5,0,1-0.2,1.5c-0.1,0.4-0.5,0.7-0.8,1
		c-0.3-0.3-0.8-0.6-0.8-1c-0.2-1.8-0.8-2-2.3-1c-0.4,0.3-1.2,0-1.8,0c0.2-0.7,0.2-1.4,0.5-2.1C346.4,127.2,346.9,127.1,346.9,127
		L346.9,127z"/>
</g>
</svg>
