<?xml version="1.0" encoding="UTF-8"?>
<svg id="Capa_1" data-name="Capa 1" xmlns="http://www.w3.org/2000/svg" viewBox="0 0 52.69 94.69">
  <defs>
    <style>
      .cls-1 {
        fill: #020202;
      }

      .cls-2 {
        fill: #010101;
      }

      .cls-3 {
        fill: #fefefe;
      }
    </style>
  </defs>
  <path class="cls-3" d="M7.34,32.59c-1.6-3-2.5-6.4-2.5-10.1C4.84,10.79,14.34,1.19,26.14,1.19s21.3,9.5,21.3,21.3c0,3.6-.9,6.9-2.4,9.9"/>
  <g>
    <path d="M.94,94.69c-.6-.4-1.1-.9-.9-1.7,.2-.8,.8-1.1,1.5-1.1,.4,0,.5-.2,.5-.5,.9-4.2,4.8-7.3,9.3-6.8,3.3,.3,4.9-1.6,6.4-3.9,.8-1.2,1.2-2.6,1.5-4.1,.1-.4,0-.7-.5-.9-2.7-1.2-3.7-3.9-2.6-6.6,.3-.7-.1-.8-.5-1-7-3.6-11.4-9.2-13.2-16.8-.5-2.3-.6-4.6-.6-6.9v-5.5c0-.4,0-.6-.6-.7-.9-.1-1.4-.7-1.2-1.5,.1-.8,.7-1.2,1.5-1.2H51.34c.8,.1,1.3,.5,1.3,1.3s-.4,1.3-1.2,1.4c-.6,.1-.6,.3-.6,.8,0,2.7,.1,5.5-.1,8.2-.6,9.4-5.2,16.4-13.5,20.8-.7,.4-1,.6-.6,1.4,1,2.3-.2,5.1-2.7,6.2-.5,.2-.6,.5-.5,1,.6,3,2,5.4,4.5,7.3,.4,.3,.9,.5,1.4,.5,1.7,0,3.3-.2,5,.3,3.3,.9,5.4,3.1,6.3,6.4,.1,.3,0,.7,.5,.7,.8,0,1.3,.3,1.5,1.1,.2,.8-.3,1.3-.9,1.7l-50.8,.1h0Z"/>
    <path d="M3.64,22.59C3.64,11.79,11.44,2.29,21.94,.39c12-2.2,23.4,5,26.3,16.9,1.2,4.9,.8,9.6-1.2,14.3-.4,1-1.1,1.3-1.8,1.1-.8-.3-1.1-1-.7-2.1,1.2-3,1.8-6,1.5-9.2-.4-5.9-2.9-10.7-7.6-14.3C29.24,0,16.64,1.89,9.84,11.39c-3.9,5.5-4.5,11.6-2.4,18,.2,.5,.4,1,.6,1.6,.2,.8-.1,1.5-.9,1.8-.7,.2-1.4-.1-1.7-.9-1-2.4-1.7-4.9-1.9-7.6,.1-.6,.1-1.1,.1-1.7Z"/>
    <path d="M24.84,26.09v-4.8c0-.6-.1-.9-.8-.8-1,.1-2.1,0-3.1,0s-1.6-.6-1.6-1.4,.6-1.4,1.6-1.4h3.2c.5,0,.7-.1,.7-.6v-2.9c0-1,.5-1.6,1.3-1.7,.8,0,1.4,.6,1.4,1.7v2.8c0,.5,.1,.8,.7,.7h3.2c1,0,1.6,.6,1.6,1.4s-.6,1.4-1.6,1.4h-3.1c-.6,0-.8,.1-.8,.8v9.3c0,1.4-.4,2.1-1.4,2.1s-1.4-.7-1.4-2.1c.1-1.5,.1-3,.1-4.5h0Z"/>
    <path class="cls-3" d="M26.34,38.29h20.8c.7,0,.9,.1,.9,.8-.1,3.4,.3,6.8-.3,10.2-1.3,8-5.7,13.6-13.1,16.9-.3,.1-.6,.2-.9,.4-1.5,.6-1.7,1.6-.5,2.7,1.1,.9,1.2,2.3,.4,3.3-.4,.5-1,.9-1.8,.9h-11.1c-1,0-1.9-.7-2.2-1.6-.3-1-.1-1.8,.7-2.5,1.3-1.2,1.1-2.2-.5-2.8-7.6-3-12.2-8.5-13.9-16.5-.4-2-.4-4-.4-6v-4.9c0-.7,.2-.8,.9-.8,7-.1,14-.1,21-.1Z"/>
    <path class="cls-3" d="M47.74,91.89H4.84c.2-2.2,2.5-4.3,5.1-4.6h31.8c2.8,0,5.1,1.6,5.9,4,.1,.2,.1,.4,.1,.6h0Z"/>
    <path class="cls-3" d="M34.14,84.49h-15.8c.3-.4,.5-.7,.8-1,1.5-2,2.5-4.3,2.8-6.8,.1-.5,.2-.6,.7-.6h7.3c.2,0,.5-.1,.6,.3,.4,3.1,1.6,5.7,3.6,8.1h0Z"/>
    <path class="cls-2" d="M26.24,69.39h-2c-.7,0-1.2-.5-1.3-1.2-.1-.8,.3-1.4,1.1-1.5,1.5-.2,3-.2,4.5,0,.8,.1,1.2,.7,1.1,1.4-.1,.8-.6,1.2-1.4,1.2-.7,.1-1.3,.1-2,.1h0Z"/>
    <path class="cls-1" d="M45.24,42.49c0,.7-.6,1.3-1.4,1.3s-1.4-.7-1.4-1.5c0-.7,.7-1.3,1.4-1.3,.8,.1,1.4,.7,1.4,1.5h0Z"/>
    <path class="cls-1" d="M38.24,46.59c.7,0,1.4,.6,1.4,1.3s-.6,1.4-1.3,1.4c-.8,0-1.4-.6-1.4-1.4,0-.6,.6-1.3,1.3-1.3h0Z"/>
  </g>
</svg>