<?xml version="1.0" encoding="UTF-8"?><svg id="Capa_1" xmlns="http://www.w3.org/2000/svg" viewBox="0 0 212.04 244.87"><defs><style>.cls-1{fill:#000;}.cls-1,.cls-2{stroke-width:0px;}.cls-2{fill:#fff;}</style></defs><path class="cls-2" d="M160.36,208.87c-7.57,0-14.95-3.11-21.36-8.99-8-7.35-14.02-17.1-18.41-29.79-7.85-22.72-9.49-47.34-4.89-73.17,2.83-15.91,7.81-29.04,15.22-40.14,5.82-8.72,9.7-12.42,19.32-17.95l-17.65-19.09c-.67-.73-.7-1.85-.06-2.61l.44-.52c.39-.46.95-.7,1.51-.7.39,0,.79.12,1.13.36l2.8,1.96c2.12,1.48,4.24,2.96,6.35,4.46l2.26,1.61c4.99,3.55,10.16,7.23,15.2,10.92.49.36.65.37.65.37,0,0,.19,0,.7-.35,6.86-4.56,13.89-9.11,20.69-13.5l5.54-3.58c.57-.37,1.17-.55,1.82-.55.46,0,.93.09,1.45.27.64.23,1.12.77,1.27,1.43.15.66-.06,1.36-.54,1.83l-18.17,17.94c5.73,2.94,10.76,7.32,15.31,13.32,5.93,7.81,10.4,17.13,13.66,28.49,6.07,21.11,7.09,43.45,3.04,66.41-3.05,17.3-8.56,31.39-16.86,43.09-4.54,6.4-9.43,11.04-14.95,14.18-5.04,2.87-10.25,4.32-15.48,4.32v-.02ZM196.64,163.6c-2.46,6.36-5.42,12.27-8.92,17.87-5.6,8.96-11.56,15-18.53,18.7.86-.34,1.7-.72,2.54-1.15,7.65-3.93,13.58-10.36,18.68-20.23,2.49-4.82,4.57-9.87,6.23-15.19ZM152.22,51.83c-3.96,0-7.87,1.67-11.61,4.95-4.04,3.55-7.35,8.19-10.42,14.61-5.8,12.14-9.14,26.04-10.22,42.5-1.42,21.77,1.1,40.5,7.72,57.27,2.88,7.3,6.78,12.98,11.92,17.36,3.25,2.76,6.69,4.16,10.23,4.16,2.86,0,5.78-.92,8.7-2.72,3.87-2.4,7.14-5.96,10.29-11.2,6.49-10.78,10.42-23.12,12.39-38.85,3.08-24.58.91-46.2-6.64-66.09-3.23-7.28-6.24-12.07-10.05-16.03-3.76-3.9-8.02-5.96-12.32-5.96h.01ZM184.64,54.14c3.32,4.79,6.43,10.3,9.55,16.85,1.06,2.23,2.06,4.49,3,6.8-2.04-7.08-4.91-13.18-8.73-18.77-1.25-1.82-2.51-3.44-3.82-4.88Z"/><path class="cls-1" d="M134.48,17.87c3.05,2.14,6.11,4.25,9.14,6.41,5.83,4.15,11.66,8.29,17.44,12.51.68.49,1.24.75,1.82.75.54,0,1.1-.22,1.79-.68,8.68-5.78,17.46-11.41,26.22-17.07.21-.13.43-.23.75-.23.22,0,.47.05.79.16-6.66,6.57-13.32,13.15-20.19,19.93,7.18,3.03,12.61,7.94,17.14,13.93,6.35,8.37,10.46,17.83,13.33,27.84,6.2,21.59,6.88,43.48,3,65.52-2.67,15.18-7.5,29.57-16.52,42.29-3.88,5.47-8.45,10.27-14.31,13.6-4.79,2.72-9.69,4.06-14.5,4.06-7.05,0-13.93-2.87-20.03-8.47-8.7-7.99-14.1-18.05-17.88-28.98-8.14-23.58-9.16-47.75-4.81-72.18,2.5-14.04,6.93-27.42,14.92-39.39,6.07-9.1,9.98-12.53,20.82-18.55-6.54-7.07-12.94-14-19.34-20.92.14-.17.29-.35.44-.52M202.71,103.01c.16-1.32.15-2.6.05-3.87-1.12-14.7-4.18-28.82-12.67-41.24-4.04-5.91-8.99-10.83-15.99-13.31,7.96,7.85,13.56,17.27,18.31,27.24,4.73,9.95,8.04,20.38,10.31,31.17M149.85,194.65c3.21,0,6.49-1.01,9.74-3.02,4.73-2.93,8.12-7.17,10.94-11.86,7.34-12.2,10.91-25.65,12.66-39.62,2.87-22.9,1.47-45.4-6.77-67.08-2.72-6.13-5.84-11.86-10.46-16.65-4.21-4.37-8.94-6.56-13.74-6.56-4.36,0-8.77,1.81-12.91,5.44-4.82,4.23-8.17,9.53-10.9,15.24-6.53,13.66-9.43,28.23-10.4,43.22-1.3,19.89.47,39.42,7.85,58.13,2.74,6.96,6.71,13.22,12.48,18.14,3.63,3.09,7.52,4.63,11.51,4.63M159.47,203.99c4.4,0,8.84-1,13.16-3.22,9.05-4.65,14.99-12.28,19.53-21.08,8.25-15.97,11.38-33.14,11.62-50.96,0-1.07-.07-2.14-.12-3.41-.33.25-.42.28-.43.33-.08.5-.16,1.01-.22,1.51-2.08,18.89-6.78,36.96-16.97,53.25-5.34,8.55-11.89,15.98-21.55,19.72-4,1.55-8.38,2.11-12.09,3,2.32.55,4.68.85,7.06.85M134.48,13.93c-1.13,0-2.25.49-3.03,1.41l-.44.52c-1.27,1.52-1.22,3.76.13,5.21l13.17,14.24,2.82,3.05c-8.35,5.03-12.35,9.06-17.85,17.31-7.56,11.34-12.64,24.71-15.52,40.89-4.66,26.17-2.99,51.12,4.97,74.16,4.49,13.01,10.69,23.02,18.94,30.6,6.78,6.22,14.62,9.51,22.7,9.51,5.58,0,11.11-1.54,16.45-4.58,5.78-3.29,10.88-8.11,15.58-14.75,8.47-11.94,14.09-26.3,17.19-43.89,4.1-23.26,3.06-45.9-3.09-67.3-3.33-11.59-7.9-21.12-13.98-29.13-4.1-5.41-8.59-9.56-13.62-12.57l16.3-16.09c.97-.96,1.38-2.34,1.08-3.67s-1.26-2.41-2.54-2.86c-.73-.26-1.42-.38-2.1-.38-1.03,0-2.01.29-2.89.86-1.86,1.2-3.71,2.4-5.57,3.6-6.65,4.3-13.52,8.73-20.24,13.2-4.96-3.62-10.03-7.23-14.93-10.72l-2.09-1.49c-2.1-1.5-4.25-2.99-6.32-4.44-.95-.66-1.89-1.32-2.84-1.99-.69-.48-1.48-.72-2.26-.72h0l-.02.02ZM149.85,190.7c-3.06,0-6.07-1.24-8.96-3.69-4.89-4.16-8.61-9.58-11.37-16.58-6.5-16.49-8.98-34.95-7.58-56.42,1.06-16.2,4.34-29.87,10.03-41.77,2.95-6.17,6.11-10.61,9.94-13.98,3.37-2.96,6.84-4.46,10.3-4.46,3.76,0,7.53,1.85,10.9,5.36,3.64,3.77,6.52,8.39,9.65,15.41,7.41,19.57,9.54,40.86,6.5,65.09-1.93,15.44-5.79,27.54-12.12,38.07-2.99,4.96-6.05,8.31-9.64,10.54-2.59,1.61-5.17,2.43-7.65,2.43h0Z"/><path class="cls-2" d="M135.49,12.38c-.92-.02-1.71-.68-1.89-1.58s.28-1.81,1.12-2.19c1.42-.64,2.8-1.3,4.16-1.94,3.26-1.55,6.34-3.02,9.64-4.1,1.24-.4,2.63-.59,4.39-.59.86,0,1.74.04,2.61.09.69.04,1.39.07,2.07.08l1.85.02c4.58.05,9.32.11,13.99.43,2.47.17,5.15.81,7.73,1.85,3.37,1.36,6.82,3.17,10.55,5.52.75.47,1.09,1.39.84,2.24-.25.83-1.02,1.4-1.89,1.4,0,0-55.17-1.23-55.17-1.23h0Z"/><path class="cls-1" d="M152.92,3.95c1.54,0,3.12.15,4.64.17,5.25.07,10.5.09,15.74.44,2.41.16,4.88.81,7.13,1.71,3.54,1.43,6.92,3.27,10.24,5.36-18.26-.41-36.52-.81-55.13-1.23,4.79-2.16,9.05-4.48,13.6-5.96,1.19-.39,2.47-.49,3.78-.49M152.92,0c-1.97,0-3.57.22-5.01.69-3.42,1.11-6.56,2.61-9.88,4.19-1.34.64-2.72,1.3-4.12,1.93-1.68.76-2.62,2.58-2.25,4.39s1.94,3.12,3.78,3.16l27.75.62,27.38.61h.09c1.74,0,3.28-1.14,3.78-2.81.51-1.7-.17-3.53-1.67-4.48-3.83-2.42-7.39-4.28-10.87-5.68-2.78-1.12-5.66-1.81-8.34-1.99-4.72-.32-9.48-.38-14.08-.43l-1.88-.02c-.63,0-1.29-.04-1.99-.08-.87-.04-1.77-.09-2.7-.09h0Z"/><path class="cls-2" d="M162.16,34.96c-.41,0-.82-.13-1.16-.38l-26.65-19.36c-.6-.44-.91-1.18-.79-1.92l.09-.52c.16-.95.99-1.64,1.95-1.64,0,0,25.45.51,25.45.51,1.03.02,1.87.83,1.93,1.86l1.16,19.36c.05.76-.35,1.48-1.02,1.85-.3.16-.62.24-.95.24h0Z"/><path class="cls-1" d="M135.6,13.12c8.35.17,16.69.34,25.41.51.38,6.34.75,12.56,1.16,19.36-9.25-6.72-17.95-13.04-26.65-19.36l.09-.51M135.59,9.17c-1.92,0-3.57,1.39-3.89,3.29l-.09.51c-.25,1.48.36,2.97,1.57,3.85l15.57,11.31,11.08,8.05c.69.5,1.5.75,2.32.75.65,0,1.3-.16,1.9-.49,1.34-.73,2.13-2.17,2.04-3.7l-1.16-19.36c-.12-2.05-1.8-3.67-3.86-3.71l-17.24-.35-8.17-.16h-.08.01Z"/><path class="cls-2" d="M163.7,34.99c-.35,0-.71-.09-1.02-.29-.65-.4-1.02-1.13-.94-1.89l2.01-19.25c.11-1.01.95-1.77,1.96-1.77,0,0,25.41.56,25.41.56.81.02,1.53.53,1.81,1.29l.19.5c.32.86,0,1.83-.77,2.33l-27.56,18.19c-.33.22-.71.33-1.09.33Z"/><path class="cls-1" d="M165.71,13.77c8.57.19,16.97.37,25.37.56.06.17.12.33.18.5-8.99,5.93-17.97,11.86-27.56,18.19.71-6.76,1.35-12.9,2.01-19.25M165.71,9.82c-2.02,0-3.71,1.52-3.92,3.54l-.97,9.29-1.04,9.96c-.16,1.52.57,2.99,1.88,3.78.63.38,1.34.57,2.05.57.76,0,1.52-.22,2.17-.65l27.56-18.19c1.53-1.01,2.16-2.94,1.53-4.67l-.09-.25-.09-.25c-.56-1.52-2-2.54-3.61-2.58l-20.45-.45-4.91-.11h-.11Z"/><path class="cls-2" d="M150.34,194.28c-3.06,0-6.08-.8-8.51-2.25-6.26-3.74-9.8-9.51-12.19-14.12-7.68-14.83-11.49-31.78-11.66-51.84-.17-20.23,2.93-37.43,9.48-52.59,3.09-7.15,7.33-15.17,15.38-20.45,2.89-1.89,5.94-2.86,9.06-2.86,3.38,0,6.66,1.12,9.75,3.32.48.34.78.87.82,1.46.04.58-.17,1.16-.59,1.57-11.92,11.62-16.28,27.01-18.98,40.52-2.89,14.45-3.4,29.56-1.56,46.21,1.38,12.5,4.07,22.44,8.45,31.28,1.68,3.39,3.81,6.53,6.07,9.86,1.02,1.5,2.07,3.05,3.07,4.62.49.77.39,1.78-.24,2.43-1.71,1.78-4.84,2.84-8.35,2.84h0Z"/><path class="cls-1" d="M151.9,52.16c2.92,0,5.84.98,8.61,2.95-11.76,11.48-16.47,26.15-19.54,41.54-3.1,15.5-3.32,31.12-1.58,46.81,1.23,11.11,3.67,21.92,8.65,31.94,2.53,5.11,6.08,9.71,9.25,14.67-1.36,1.41-4.01,2.24-6.93,2.24-2.51,0-5.22-.61-7.49-1.97-5.33-3.19-8.68-7.99-11.45-13.33-8.28-15.98-11.29-33.17-11.44-50.95-.15-17.82,2.18-35.27,9.32-51.79,3.31-7.66,7.4-14.83,14.65-19.58,2.57-1.69,5.27-2.53,7.98-2.53M151.9,48.21h0c-3.52,0-6.93,1.07-10.15,3.18-8.48,5.57-12.9,13.9-16.11,21.32-6.66,15.42-9.81,32.88-9.64,53.39.17,20.38,4.06,37.63,11.89,52.73,2.51,4.84,6.24,10.91,12.93,14.9,2.72,1.63,6.1,2.52,9.52,2.52,4.1,0,7.66-1.25,9.77-3.44,1.27-1.31,1.47-3.33.49-4.87-1.02-1.6-2.08-3.16-3.1-4.67-2.22-3.27-4.31-6.36-5.93-9.63-4.28-8.62-6.9-18.35-8.26-30.62-1.82-16.44-1.32-31.36,1.53-45.6,2.78-13.88,6.93-28.27,18.43-39.49.84-.82,1.27-1.96,1.18-3.13-.09-1.17-.69-2.23-1.65-2.91-3.43-2.45-7.1-3.69-10.9-3.69h0Z"/><path class="cls-2" d="M52.06,243.25c-7.38,0-14.71-2.89-21.18-8.36-8.7-7.35-15.2-17.25-20.45-31.15-7.15-18.94-9.9-39.3-8.4-62.24,1.18-18.03,5.01-33.62,11.71-47.66,5.38-11.26,11.47-19.05,19.17-24.51,6.06-4.3,12.43-6.48,18.92-6.48,7.12,0,13.95,2.6,20.3,7.74,7.92,6.4,14.13,15.16,19.54,27.56,5.46,12.51,8.58,26.39,9.8,43.66.19,2.7.39,5.39.58,8.08l.31,4.32v.15c-.46,20.38-3.79,37.72-10.17,53.01-5.25,12.6-11.42,21.49-19.42,27.98-6.38,5.18-13.55,7.92-20.72,7.92v-.02ZM93.01,181.92c-3.69,15.65-9.24,28.1-17.27,38.82-5.63,7.52-11.84,12.64-18.83,15.51,2.15-.46,4.27-1.19,6.35-2.19,8.17-3.95,14.64-10.8,19.78-20.94,4.88-9.63,8.19-19.96,9.98-31.2h-.01ZM40.39,78.86c-5.38,0-10.14,2.62-14.98,8.24-4.65,5.4-8.28,12.05-10.77,19.77-9.96,30.8-9.83,61.99.39,92.69,2.94,8.82,7.04,15.82,12.55,21.39,4.16,4.21,8.81,6.43,13.45,6.43h0c4.55,0,9.09-2.15,13.13-6.22,2.52-2.54,4.95-5.77,7.22-9.6,5.24-8.83,8.7-19.37,10.89-33.18,2.01-12.68,2.58-24.21,1.76-35.26-.66-11.23-2.65-22.06-5.93-32.22-3.2-9.93-6.74-16.97-11.48-22.82-4.56-5.65-8.9-8.45-14.07-9.09-.73-.09-1.45-.14-2.15-.14h-.01ZM56.88,68.6c4.2,1.6,8.32,4.23,12.44,7.92,4.36,3.91,8.24,8.26,11.72,13.17-.9-1.46-1.85-2.88-2.84-4.28-6.42-9.03-12.66-14.12-20.23-16.49-.36-.11-.72-.22-1.09-.31h0Z"/><path class="cls-1" d="M51.82,64.47c6.63,0,13.2,2.47,19.27,7.37,8.89,7.18,14.58,16.65,19.07,26.94,6,13.75,8.62,28.26,9.67,43.12.29,4.14.6,8.27.9,12.41-.41,18.06-3.05,35.66-10.04,52.42-4.36,10.45-9.99,20.08-18.94,27.34-6.21,5.04-12.96,7.55-19.7,7.55s-13.84-2.66-20.13-7.97c-9.67-8.16-15.59-18.85-19.98-30.48-7.5-19.87-9.67-40.48-8.3-61.56,1.07-16.37,4.45-32.19,11.56-47.07,4.45-9.31,10.06-17.8,18.64-23.89,5.82-4.13,11.92-6.18,17.98-6.18M40.93,68.93c1.98-.41,3.9-.6,5.76-.6,8.23,0,15.25,3.77,21.54,9.4,12.75,11.42,20.33,26.08,25.54,42.13.3.91.48,1.86.72,2.8.19-.07.38-.13.57-.2-.36-1.46-.73-2.92-1.06-4.39-2.74-12.1-7.25-23.45-14.47-33.61-5.43-7.63-11.81-14.2-21.07-17.1-2.36-.74-4.71-1.12-7.03-1.12-3.57,0-7.07.89-10.49,2.68M41.02,229.02c4.92,0,9.84-2.22,14.29-6.7,2.89-2.91,5.36-6.37,7.47-9.92,6.17-10.4,9.22-21.92,11.1-33.76,1.87-11.8,2.67-23.68,1.77-35.64-.65-11.11-2.58-21.99-6.01-32.6-2.71-8.4-6.17-16.42-11.76-23.34-3.95-4.88-8.62-8.87-15.13-9.68-.81-.1-1.59-.15-2.35-.15-6.74,0-11.85,3.74-16.22,8.81-5.14,5.97-8.68,12.9-11.09,20.33-10.11,31.26-9.98,62.54.39,93.7,2.73,8.2,6.77,15.78,12.93,22.02,4.54,4.6,9.58,6.92,14.61,6.92M51.53,238.44c4.25,0,8.4-.97,12.44-2.92,9.57-4.63,15.88-12.51,20.52-21.67,9.72-19.19,12.57-39.77,11.52-60.86-1.04,7.33-1.8,14.89-3.24,22.32-3.12,16.01-8.42,31.22-18.32,44.45-6.28,8.39-14.01,14.84-24.65,16.93-2.01.39-4.09.46-6.14.68,2.67.72,5.3,1.08,7.89,1.08M51.82,61.21v3.26-3.26h0c-6.83,0-13.51,2.28-19.86,6.78-7.93,5.63-14.19,13.62-19.7,25.14C5.47,107.37,1.59,123.15.4,141.39c-1.51,23.18,1.27,43.77,8.5,62.92,5.35,14.18,12,24.29,20.93,31.82,6.77,5.72,14.46,8.74,22.23,8.74s15.07-2.86,21.75-8.28c8.21-6.66,14.53-15.75,19.89-28.62,6.45-15.48,9.82-33.01,10.29-53.6v-.31l-.28-3.91c-.21-2.83-.41-5.66-.61-8.5-1.24-17.46-4.39-31.5-9.93-44.19-5.52-12.65-11.88-21.6-20.01-28.17-6.56-5.3-13.93-8.1-21.32-8.1h0l-.02.02ZM41.02,225.76c-4.2,0-8.45-2.06-12.29-5.95-5.33-5.39-9.31-12.19-12.16-20.76-10.11-30.36-10.23-61.21-.38-91.67,2.43-7.51,5.95-13.98,10.46-19.21,4.51-5.24,8.88-7.68,13.75-7.68.64,0,1.29.04,1.95.12,4.71.58,8.72,3.2,13,8.5,4.6,5.69,8.05,12.57,11.19,22.3,3.24,10.03,5.21,20.73,5.86,31.79v.05c.81,10.93.25,22.34-1.74,34.89-2.15,13.59-5.55,23.95-10.68,32.6-2.21,3.72-4.56,6.84-6.98,9.29-3.72,3.75-7.87,5.74-11.98,5.74h0Z"/><path class="cls-2" d="M40.84,228.16c-3.77,0-7.43-1.37-10.88-4.08-6.3-4.94-11.03-11.93-14.48-21.35-11.67-31.93-12.08-64.63-1.21-97.2,3.1-9.28,7.43-16.41,13.23-21.8,4.05-3.76,8.56-5.74,13.06-5.74,2.81,0,5.56.76,8.18,2.25.39.22.72.48.91.63l.09.07c.72.53.89,1.55.37,2.27-.9,1.25-1.83,2.48-2.75,3.7-2.01,2.66-3.91,5.18-5.54,7.9-4.73,7.94-7.97,17.31-10.2,29.49-3.77,20.62-3.47,41.15.9,61.02,3.18,14.48,7.61,24.67,14.36,33.03.77.95,1.61,1.86,2.51,2.82.44.47.88.95,1.33,1.44.32.35.47.82.41,1.29-.06.47-.32.89-.72,1.15-3.09,2.05-6.32,3.09-9.59,3.09l.02.02Z"/><path class="cls-1" d="M40.56,79.63c2.5,0,4.99.68,7.38,2.03.38.22.71.51.86.61-2.85,3.95-5.93,7.64-8.36,11.71-5.52,9.26-8.48,19.51-10.41,30.03-3.77,20.6-3.59,41.2.91,61.67,2.67,12.16,6.71,23.82,14.69,33.7,1.18,1.46,2.52,2.81,3.9,4.33-2.84,1.88-5.77,2.82-8.69,2.82-3.37,0-6.72-1.25-9.88-3.73-6.85-5.38-11.05-12.69-13.95-20.63-11.65-31.86-11.92-63.98-1.19-96.12,2.64-7.92,6.53-15.31,12.79-21.12,3.8-3.53,7.9-5.31,11.96-5.31M40.56,76.37h0c-4.92,0-9.82,2.14-14.17,6.18-6.01,5.58-10.48,12.93-13.67,22.47-10.99,32.93-10.58,65.99,1.22,98.27,3.55,9.72,8.46,16.94,15,22.07,3.74,2.94,7.74,4.43,11.89,4.43,3.59,0,7.12-1.13,10.49-3.36.79-.52,1.31-1.37,1.43-2.31s-.18-1.89-.82-2.59c-.46-.5-.91-.99-1.35-1.46-.87-.94-1.7-1.83-2.43-2.73-6.58-8.16-10.91-18.14-14.04-32.36-4.32-19.66-4.62-39.98-.89-60.38,2.19-11.98,5.37-21.18,10-28.95,1.58-2.64,3.45-5.13,5.44-7.75.91-1.21,1.85-2.45,2.77-3.72.51-.7.71-1.57.57-2.43-.14-.85-.61-1.62-1.31-2.12l-.03-.03c-.22-.17-.62-.49-1.12-.77-2.87-1.63-5.9-2.46-8.99-2.46h0Z"/></svg>