<?xml version="1.0" encoding="UTF-8"?><svg id="Capa_1" xmlns="http://www.w3.org/2000/svg" viewBox="0 0 116.04 180.76"><defs><style>.cls-1{fill:#000;}.cls-1,.cls-2{stroke-width:0px;}.cls-2{fill:#fff;}</style></defs><path class="cls-2" d="M47.06,179.26c-5.01-.12-9.84-1.32-14.38-3.57-2.25-1.12-4.73-1.66-7.56-1.66-.79,0-1.63.04-2.49.13-1.09.1-2.25.15-3.66.15-.95,0-1.9-.02-2.87-.04-.57-.01-1.14-.03-1.71-.03-.08.31-.16.62-.25.93-.43,1.46-1.47,2.33-2.78,2.33-.59,0-1.18-.18-1.75-.54-2.54-1.56-4.54-3.63-5.95-6.14-.29-.53-.68-1.05-1.12-1.66-.24-.33-.49-.67-.75-1.05-.34-.48-.36-1.12-.06-1.62l2.27-3.84c7.24-12.26,12.08-25.62,16.24-38.22,3.8-11.53,7.14-21.04,10.5-29.93,2.92-7.71,6.51-14.15,10.98-19.64-.83-.34-1.63-.65-2.42-.88-2.77-.82-4.44-2.04-4.22-5.6.22-3.62.61-7.44,1.17-11.35.38-2.69.94-5.38,1.47-7.98l.39-1.89c.78-3.84,3.03-6.81,5.08-9.3.78-.94,1.43-1.93,1.98-2.99-.09,0-.18,0-.27,0-.62,0-1.23-.15-1.81-.44-1.43-.73-2.81-1.82-3.88-3.07l-.22-.25c-.76-.9-1.41-1.67-2.34-2.23-2.02-1.23-3.39-3.21-3.85-5.56-.47-2.41.1-4.93,1.57-6.91.81-1.09,1.91-2.21,4-2.21.06,0,.13,0,.2,0,.74-.9,1.64-1.06,2.18-1.06.19,0,.38.02.57.05,1-1.66,2.54-2.55,4.46-2.55,1.1,0,2.3.3,3.57.9.78-.58,1.69-.88,2.71-.88.81,0,1.7.19,2.77.59.84.32,1.42.97,1.69,1.33,1.06,1.42,1.94,2.63,2.76,3.91.33.51.59,1.03.83,1.53.23.46.44.89.69,1.27.34.52.86,1.27,1.48,1.77.61.5,1.75,1.43,1.68,2.77-.02.38-.14.88-.55,1.37.03.22.06.43.09.64.17,1.29.34,2.5.4,3.74.07,1.35-1.42,2.27-2.11,2.49-.56.18-1.2.26-1.88.26-.26,0-.51-.01-.76-.04-.07,0-.13,0-.19,0-.36,0-.71,0-1.17,1.23-.54,1.44-1.09,2.89-1.67,4.32-.83,2.09-.57,3.35,1.06,5.01,2.6,2.65,4.93,5.09,7.13,7.45,2.9,3.12,3.39,6.38,1.54,10.26l-.4.84c-1.18,2.45-2.31,4.79-2.4,7.34,1.8-.79,3.46-1.92,5.02-3.4,0-.09,0-.2,0-.28,0-.19,0-.38.02-.55.16-1.8.27-3.64.38-5.42.25-4.11.51-8.36,1.33-12.48.74-3.71,2.12-7.29,3.45-10.75.57-1.48,1.16-3,1.68-4.5.11-.32.23-.63.35-.94.14-.37.28-.73.4-1.11-.6.12-1.19.29-1.82.46-.48.13-.95.26-1.43.37-.41.1-.77.15-1.09.15-1.51,0-2.4-.96-2.64-2.84-.04-.28-.25-.69-.45-1.08-.13-.25-.26-.5-.37-.75-.16-.36-.33-.72-.5-1.1-.71-.13-1.35-.36-1.77-.98-.6-.88-.34-1.9-.08-2.89l.06-.23c.38-1.44.41-1.8-.18-2.32-.76-.66-.8-1.64-.83-2.36,0-.12,0-.23-.02-.34-.04-.43-.04-.87-.03-1.3,0-.81.02-1.46-.33-2.08-.88-1.59.37-3.93,1.08-4.76,3.27-3.84,7.48-5.78,12.53-5.78.47,0,.94.02,1.42.05.69.05,1.42.16,2,.66.41.35.83.69,1.25,1.03,1.33,1.08,2.7,2.19,3.82,3.58,1.72,2.13,1.35,4.91,1.1,6.75-.16,1.18-.35,2.56-.61,3.9-.28,1.49.22,2.6,1.67,3.71.3.13.71.33,1.01.77.77,1.14,1.56,2.27,2.36,3.4,1.91,2.71,3.88,5.51,5.5,8.49,3.34,6.12,2.73,12.86,1.97,17.4-1.35,8.13-1.36,16.29-.02,24.24.35,2.09.69,4.18,1.03,6.27.39,2.41.79,4.82,1.19,7.23.25,1.47-.28,2.56-1.62,3.32-.47.26-.8.64-.85.79-2.3,6.71-3.55,14.02-3.7,21.74-.06,2.89.54,5.13,1.82,6.85,6.18,8.28,9.43,17.83,11.8,26.09.52,1.81,1.15,3.64,1.75,5.41.51,1.5,1.05,3.05,1.52,4.6.58,1.9,1.07,3.82,1.59,5.84.24.92.48,1.86.74,2.84.11.42.03.88-.22,1.24-.25.36-.64.59-1.08.64l-2.12.22c-2.13.22-4.14.44-6.16.59-.04,0-.11,0-.14,0-.63,0-1.12-.29-1.51-.57-2.35.98-4.44,1.44-6.52,1.44-.41,0-.82-.02-1.23-.06v2.49c0,.8-.62,1.46-1.42,1.5l-1.88.1c-2.12.11-4.22.22-6.31.34,0,0-.06.02-.23.08-3.84,1.53-7.32,2.27-10.63,2.27-2.37,0-4.7-.39-6.94-1.16-.05-.01-.23-.03-.34-.04-1.11-.08-2.22-.16-3.35-.24l-.17,1.52c-.08.76-.73,1.33-1.49,1.33-.01,0-.03,0-.04,0-2.22-.06-4.28-.65-6.46-1.87l-.12,1.07c-.08.71-.65,1.27-1.37,1.33-.74.06-1.49.14-2.25.22-1.59.17-3.23.35-4.89.35-.18,0-.37,0-.55,0ZM63.97,81.16c.89,15.84,2.78,31.8,4.62,47.26,1.55,13.06,3.15,26.54,4.14,39.94,1.24-.31,2.27-.88,3.16-1.75,1.19-1.16,2.36-2.34,3.44-3.45.02-.02.04-.04.05-.06.12-.78.4-1.49.65-2.13.44-1.14.68-1.82.34-2.56-.26-.57-.13-1.1-.08-1.36.64-4.52,1.28-9.73.9-14.89l-.1-1.48c-.22-3.24-.43-6.3-1.52-9.23-3.51-9.45-6.22-20.07-8.28-32.48-.05-.28-.08-.56-.12-.84-.18-1.44-.31-1.98-1.09-2.38-.95-.48-1.36-1.52-1.66-2.57-.4-1.39-.75-2.66-.9-4.01-.31-2.69-.55-5.33-.82-8.12l-.11-1.12s-2.6,1.21-2.62,1.22ZM96.42,153.88c-.07,2.48-.16,5.03-.7,7.6,1.07-.69,1.45-1.17,1.35-2.21-.12-1.25-.15-2.51-.18-3.73-.01-.43-.02-.86-.04-1.29-.16-.12-.3-.24-.42-.38Z"/><path class="cls-1" d="M77.75,3c.43,0,.87.02,1.32.05.39.03.86.08,1.13.31,1.67,1.42,3.51,2.72,4.87,4.41,1.25,1.55,1.04,3.66.78,5.61-.17,1.28-.35,2.56-.59,3.82-.43,2.29.55,3.92,2.3,5.23.19.14.48.19.6.37,2.63,3.9,5.54,7.65,7.79,11.76,2.8,5.12,2.74,10.83,1.81,16.43-1.37,8.26-1.41,16.49-.02,24.74.76,4.5,1.46,9.01,2.23,13.51.15.86-.1,1.32-.88,1.76-.63.35-1.31.96-1.53,1.61-2.47,7.19-3.63,14.62-3.78,22.2-.06,2.76.43,5.51,2.12,7.77,5.74,7.69,8.95,16.5,11.56,25.6.97,3.38,2.25,6.66,3.28,10.03.83,2.73,1.48,5.51,2.31,8.63-2.95.3-5.59.61-8.24.8-.01,0-.02,0-.03,0-.39,0-.81-.48-1.33-.79-2.08.95-4.29,1.66-6.7,1.66-.88,0-1.79-.1-2.73-.31v4.25c-2.77.14-5.49.28-8.2.43-.24.01-.47.1-.7.19-3.32,1.32-6.67,2.17-10.08,2.17-2.13,0-4.27-.33-6.45-1.08-.23-.08-.48-.1-.72-.12-1.58-.12-3.15-.22-4.79-.34-.08.71-.2,1.78-.33,2.96-2.89-.08-5.31-1.2-7.73-2.93-.13,1.14-.23,2.1-.38,3.47-2.29.19-4.66.57-7.02.57-.17,0-.34,0-.51,0-4.81-.12-9.42-1.27-13.75-3.41-2.64-1.31-5.38-1.81-8.23-1.81-.87,0-1.75.05-2.64.13-1.17.11-2.34.15-3.52.15-1.89,0-3.8-.09-5.75-.09-.16.6-.32,1.31-.52,2.01-.25.84-.74,1.25-1.34,1.25-.3,0-.63-.1-.97-.31-2.27-1.4-4.11-3.24-5.43-5.6-.51-.9-1.17-1.72-1.95-2.83.63-1.06,1.45-2.45,2.27-3.84,7.15-12.12,11.98-25.21,16.37-38.52,3.3-10.02,6.75-20,10.48-29.87,2.69-7.11,6.25-13.84,11.16-19.74.25-.3.43-.65.73-1.11-1.5-.57-2.88-1.21-4.32-1.63-2.44-.72-3.3-1.53-3.15-4.07.23-3.76.63-7.51,1.16-11.23.47-3.28,1.19-6.54,1.84-9.79.68-3.37,2.64-6.06,4.77-8.64,1.63-1.97,2.8-4.17,3.59-6.94-1.01.85-2.01,1.51-3.04,1.51-.37,0-.75-.09-1.12-.28-1.28-.65-2.49-1.62-3.42-2.71-.89-1.05-1.69-2.05-2.92-2.8-3.54-2.16-4.33-6.96-1.86-10.3.85-1.14,1.58-1.6,2.79-1.6.3,0,.62.03.98.08.35-.78.82-1.13,1.39-1.13.4,0,.85.17,1.32.49.68-1.98,1.97-2.99,3.71-2.99,1.11,0,2.39.41,3.82,1.23.73-.88,1.57-1.2,2.46-1.2.72,0,1.48.21,2.24.5.39.15.76.48,1.01.82.93,1.25,1.86,2.51,2.7,3.82.58.9.95,1.92,1.53,2.81.5.77,1.08,1.54,1.78,2.11,1.05.86,1.67,1.62.5,2.41.23,1.83.49,3.42.57,5.03.02.32-.62.85-1.06.98-.45.14-.95.2-1.44.2-.21,0-.42-.01-.63-.03-.11-.01-.22-.02-.33-.02-1.44,0-2.1.94-2.57,2.2-.54,1.43-1.09,2.87-1.65,4.29-1.07,2.67-.65,4.55,1.38,6.62,2.4,2.44,4.77,4.91,7.1,7.42,2.49,2.68,2.84,5.33,1.28,8.6-1.51,3.18-3.22,6.3-2.92,10.01.02.24.03.49.06.93,3.05-.92,5.53-2.54,7.7-4.66.3-.3.21-1.02.26-1.56.52-5.92.52-11.95,1.68-17.74,1.03-5.15,3.33-10.04,5.08-15.05.24-.7.54-1.39.77-2.09.4-1.23-.05-1.98-1.13-1.98-.18,0-.38.02-.59.06-1.12.23-2.2.58-3.31.85-.29.07-.54.11-.75.11-.76,0-1.02-.47-1.15-1.53-.1-.78-.61-1.5-.94-2.25-.27-.6-.55-1.2-.86-1.87-1.77-.2-1.89-.3-1.42-2.12.38-1.47.83-2.82-.59-4.05-.35-.3-.29-1.11-.34-1.7-.12-1.32.21-2.6-.54-3.97-.37-.67.25-2.29.91-3.06,3.02-3.54,6.87-5.26,11.39-5.26M46.41,68.47c-.41-2.87-.76-5.31-1.11-7.75-.16,0-.31,0-.47-.01-.59,1.82-1.19,3.63-1.73,5.47-.07.23.14.69.36.82.79.47,1.64.84,2.95,1.48M63.4,79.77c-.41-.48-.74-.87-1.08-1.25,1.51,30.7,6.85,60.92,9.02,91.57,2.33-.19,4.11-.97,5.59-2.41,1.17-1.14,2.32-2.31,3.47-3.48.2-.2.41-.48.44-.74.23-1.9,1.83-3.58.89-5.67-.07-.16.03-.39.05-.59.71-5.03,1.28-10.06.89-15.16-.28-3.76-.37-7.52-1.71-11.12-3.88-10.44-6.39-21.23-8.21-32.2-.26-1.6-.15-3.36-2.01-4.3-.47-.24-.73-1.05-.9-1.65-.36-1.23-.71-2.49-.86-3.76-.42-3.73-.75-7.47-1.12-11.33-1.47.68-2.97,1.38-4.48,2.09M93.46,163.95c.65-.07,1.11.02,1.39-.17,1.7-1.16,3.97-1.86,3.7-4.65-.17-1.81-.15-3.63-.23-5.45,0-.14-.06-.37-.15-.4-1.39-.55-1.03-1.88-1.34-2.92-.34-1.13-.72-2.24-1.08-3.36-.36.39-.45.76-.5,1.12-.65,5.18.14,10.52-1.8,15.82M77.75,0c-5.5,0-10.1,2.12-13.67,6.31-1.13,1.32-2.47,4.25-1.25,6.45.14.25.15.57.14,1.34,0,.43,0,.91.04,1.44,0,.09.01.18.01.27.04.8.1,2.28,1.27,3.35-.04.24-.14.61-.21.87l-.06.23c-.02.09-.05.19-.07.29-.29-.28-.56-.51-.76-.67-.34-.28-.73-.75-1.17-1.43-.2-.3-.39-.7-.6-1.12-.25-.51-.54-1.1-.92-1.68-.84-1.31-1.74-2.54-2.82-3.99-.37-.49-1.16-1.39-2.36-1.84-.79-.3-1.99-.69-3.3-.69-1.02,0-1.98.23-2.83.69-1.2-.47-2.35-.71-3.44-.71-2.14,0-3.94.89-5.21,2.5-.63.03-1.69.22-2.65,1.06-2.47.15-3.83,1.56-4.75,2.8-1.72,2.32-2.39,5.27-1.83,8.1.54,2.77,2.16,5.1,4.54,6.55.72.44,1.28,1.09,1.98,1.92l.22.26c1.19,1.4,2.73,2.62,4.34,3.44.12.06.24.12.36.17-.23.33-.48.65-.74.96-2.17,2.63-4.55,5.78-5.4,9.95-.13.63-.26,1.26-.39,1.89-.54,2.62-1.1,5.34-1.49,8.08-.56,3.95-.96,7.81-1.18,11.47-.29,4.82,2.51,6.31,5.29,7.13.13.04.27.08.41.13-3.98,5.24-7.24,11.3-9.94,18.42-3.37,8.91-6.71,18.44-10.52,29.99-4.13,12.53-8.94,25.79-16.1,37.93-.57.97-1.15,1.94-1.66,2.8l-.61,1.04c-.6,1.01-.55,2.28.12,3.24.27.39.53.74.77,1.07.43.59.77,1.06,1.02,1.51,1.53,2.74,3.71,4.99,6.47,6.69.82.5,1.67.76,2.54.76,1.92,0,3.5-1.23,4.16-3.23.18,0,.37,0,.55.01.95.02,1.93.04,2.9.04,1.46,0,2.67-.05,3.81-.16.82-.08,1.61-.12,2.35-.12,2.6,0,4.85.49,6.9,1.5,4.73,2.34,9.78,3.59,15.01,3.72.19,0,.39,0,.58,0,1.74,0,3.42-.18,5.05-.36.74-.08,1.48-.16,2.21-.22,1.09-.09,2.02-.76,2.47-1.7,1.53.64,3.31,1.11,5.32,1.16.03,0,.06,0,.08,0,1.52,0,2.81-1.15,2.98-2.67v-.09c.65.05,1.28.09,1.91.14.04,0,.07,0,.11,0,2.35.79,4.8,1.19,7.29,1.19,3.5,0,7.15-.78,11.16-2.37,2.07-.12,4.14-.22,6.23-.33l1.74-.09c1.59-.08,2.84-1.4,2.84-3v-.94c1.98-.03,3.95-.44,6.11-1.27.45.22.99.4,1.65.4.07,0,.18,0,.25,0,2.03-.15,4.05-.36,6.18-.59.7-.07,1.41-.15,2.15-.22.87-.09,1.66-.56,2.16-1.28.5-.72.66-1.63.43-2.48-.26-.98-.5-1.92-.74-2.83-.52-2.04-1.02-3.97-1.61-5.9-.48-1.58-1.01-3.14-1.53-4.65-.63-1.83-1.22-3.56-1.73-5.34-2.41-8.38-5.72-18.1-12.04-26.57-1.08-1.44-1.58-3.38-1.53-5.92.15-7.48,1.34-14.57,3.55-21.08.06-.05.15-.12.24-.18,1.87-1.06,2.71-2.79,2.36-4.88-.41-2.4-.8-4.81-1.19-7.22-.34-2.1-.68-4.19-1.03-6.28-1.31-7.79-1.3-15.78.02-23.75.79-4.76,1.43-11.83-2.14-18.36-1.67-3.05-3.66-5.89-5.59-8.63-.78-1.1-1.58-2.25-2.34-3.37-.48-.71-1.11-1.06-1.47-1.22-1.11-.88-1.1-1.49-.98-2.14.26-1.39.46-2.78.62-3.98.27-1.97.71-5.26-1.42-7.89-1.22-1.51-2.65-2.67-4.04-3.8-.41-.33-.82-.67-1.22-1.01-1.04-.89-2.32-.98-2.87-1.01-.51-.04-1.03-.05-1.53-.05h0ZM64.94,25.57c.07-.12.12-.23.17-.34.36.27.76.45,1.15.58.07.14.13.29.19.43.12.28.26.55.41.83.1.2.26.5.3.63.49,3.7,3.04,4.1,4.12,4.1.44,0,.91-.06,1.44-.19.18-.04.35-.09.53-.13-.46,1.28-.96,2.59-1.45,3.85-1.35,3.52-2.76,7.16-3.52,10.99-.39,1.96-.66,3.94-.86,5.91-.49-1.02-1.18-2-2.06-2.95-2.2-2.37-4.54-4.82-7.16-7.48-1.21-1.24-1.35-1.87-.74-3.4.5-1.26,1.04-2.64,1.68-4.35.03-.09.07-.17.09-.23.21.01.42.02.63.02.84,0,1.62-.11,2.33-.33,1.28-.4,3.27-1.83,3.16-3.99-.06-1.3-.23-2.55-.41-3.86,0-.03,0-.05-.01-.08h0ZM65.1,65.83c.41-1.2,1-2.42,1.63-3.72-.05.77-.11,1.53-.18,2.29,0,.09-.01.19-.02.28-.47.42-.95.8-1.43,1.15h0ZM74.06,166.16c-1-12.74-2.52-25.52-3.99-37.92-1.51-12.75-3.06-25.84-4.06-38.92,0,.01,0,.02,0,.03.17,1.46.55,2.85.95,4.26.25.86.77,2.64,2.42,3.49.06.03.08.05.08.05.07.14.15.76.2,1.18.04.3.08.6.13.89,2.07,12.5,4.81,23.22,8.35,32.76,1.01,2.72,1.21,5.68,1.43,8.81.03.5.07.99.11,1.49.37,4.98-.25,10.07-.86,14.45-.09.41-.28,1.31.17,2.31.08.18-.04.56-.37,1.4-.22.55-.47,1.21-.64,1.95-1,1.02-2.06,2.1-3.15,3.15-.25.24-.51.45-.78.63h0Z"/></svg>